<svg width="161" height="55" viewBox="0 0 161 55" fill="none" xmlns="http://www.w3.org/2000/svg">
<path d="M28.944 38V12.992L19.44 26.72H16.176L6.72 12.992V38H2.4V6.08H7.152L17.808 21.488L28.464 6.08H33.264V38H28.944ZM42.1999 27.824C42.1999 28.592 42.4719 29.392 43.0159 30.224C43.5919 31.056 44.2479 31.76 44.9839 32.336C46.3279 33.392 47.8959 33.92 49.6879 33.92C52.5359 33.92 54.8559 32.544 56.6479 29.792L60.2959 31.952C59.0479 33.968 57.5119 35.52 55.6879 36.608C53.8639 37.696 51.8639 38.24 49.6879 38.24C48.0559 38.24 46.5039 37.936 45.0319 37.328C43.5599 36.688 42.2639 35.808 41.1439 34.688C40.0239 33.568 39.1439 32.272 38.5039 30.8C37.8959 29.328 37.5919 27.776 37.5919 26.144C37.5919 24.512 37.8959 22.96 38.5039 21.488C39.1439 19.984 40.0239 18.672 41.1439 17.552C42.2319 16.432 43.5119 15.568 44.9839 14.96C46.4879 14.352 48.0559 14.048 49.6879 14.048C51.3199 14.048 52.8719 14.352 54.3439 14.96C55.8479 15.568 57.1439 16.432 58.2319 17.552C60.5999 19.984 61.7839 22.8 61.7839 26C61.7839 26.576 61.7359 27.184 61.6399 27.824H42.1999ZM49.6879 17.984C48.3759 17.984 47.1439 18.272 45.9919 18.848C44.8399 19.424 43.9119 20.192 43.2079 21.152C42.5359 22.08 42.1999 23.072 42.1999 24.128H57.1759C57.1759 23.072 56.8239 22.08 56.1199 21.152C55.4479 20.192 54.5359 19.424 53.3839 18.848C52.2319 18.272 50.9999 17.984 49.6879 17.984ZM85.2664 38V34.304C84.2424 35.52 83.0264 36.48 81.6184 37.184C80.2424 37.888 78.8024 38.24 77.2984 38.24C75.6024 38.24 74.0184 37.936 72.5464 37.328C71.0744 36.688 69.7944 35.792 68.7064 34.64C67.5864 33.488 66.7064 32.176 66.0664 30.704C65.4584 29.2 65.1544 27.616 65.1544 25.952C65.1544 24.288 65.4584 22.72 66.0664 21.248C66.7064 19.744 67.5864 18.416 68.7064 17.264C69.7944 16.112 71.0744 15.232 72.5464 14.624C74.0184 13.984 75.6024 13.664 77.2984 13.664C78.9624 13.664 80.4664 14 81.8104 14.672C83.1864 15.344 84.3384 16.272 85.2664 17.456V6.128H89.4904V38H85.2664ZM77.2984 18.032C76.2424 18.032 75.2344 18.24 74.2744 18.656C73.3144 19.04 72.4824 19.6 71.7784 20.336C71.0744 21.072 70.5144 21.936 70.0984 22.928C69.6824 23.888 69.4744 24.896 69.4744 25.952C69.4744 28.096 70.2424 29.968 71.7784 31.568C72.4824 32.304 73.3144 32.88 74.2744 33.296C75.2344 33.712 76.2424 33.92 77.2984 33.92C78.3544 33.92 79.3624 33.712 80.3224 33.296C81.3144 32.88 82.1624 32.304 82.8664 31.568C84.4024 29.968 85.1704 28.096 85.1704 25.952C85.1704 24.896 84.9624 23.888 84.5464 22.928C84.1304 21.936 83.5704 21.072 82.8664 20.336C82.1624 19.6 81.3144 19.04 80.3224 18.656C79.3624 18.24 78.3544 18.032 77.2984 18.032ZM96.483 10.544C95.875 10.544 95.347 10.336 94.899 9.92C94.483 9.472 94.275 8.944 94.275 8.336C94.275 7.728 94.483 7.216 94.899 6.8C95.347 6.352 95.875 6.128 96.483 6.128C97.091 6.128 97.603 6.352 98.019 6.8C98.467 7.216 98.691 7.728 98.691 8.336C98.691 8.944 98.467 9.472 98.019 9.92C97.603 10.336 97.091 10.544 96.483 10.544ZM94.515 38V14H98.547V38H94.515Z" fill="white"/>
<path d="M113.576 38.24C111.944 38.24 110.392 37.936 108.92 37.328C107.48 36.688 106.2 35.808 105.08 34.688C103.992 33.6 103.128 32.32 102.488 30.848C101.88 29.344 101.576 27.776 101.576 26.144C101.576 24.512 101.88 22.96 102.488 21.488C103.128 19.984 103.992 18.688 105.08 17.6C106.2 16.48 107.48 15.616 108.92 15.008C110.392 14.368 111.944 14.048 113.576 14.048C117.352 14.048 120.552 15.648 123.176 18.848L119.432 21.008C117.768 19.248 115.816 18.368 113.576 18.368C112.52 18.368 111.512 18.576 110.552 18.992C109.624 19.376 108.808 19.92 108.104 20.624C107.4 21.328 106.84 22.16 106.424 23.12C106.008 24.08 105.8 25.088 105.8 26.144C105.8 27.2 106.008 28.208 106.424 29.168C106.84 30.128 107.4 30.96 108.104 31.664C108.808 32.368 109.624 32.928 110.552 33.344C111.512 33.728 112.52 33.92 113.576 33.92C115.816 33.92 117.768 33.04 119.432 31.28L123.176 33.44C120.552 36.64 117.352 38.24 113.576 38.24ZM145.496 38V34.352C144.472 35.536 143.288 36.48 141.944 37.184C140.6 37.888 139.176 38.24 137.672 38.24C136.008 38.24 134.44 37.936 132.968 37.328C131.528 36.72 130.248 35.856 129.128 34.736C128.008 33.648 127.128 32.368 126.488 30.896C125.88 29.392 125.576 27.824 125.576 26.192C125.576 24.56 125.88 23.008 126.488 21.536C127.128 20.032 128.008 18.72 129.128 17.6C130.248 16.48 131.528 15.616 132.968 15.008C134.44 14.4 136.008 14.096 137.672 14.096C139.208 14.096 140.648 14.416 141.992 15.056C143.368 15.696 144.536 16.592 145.496 17.744V14.576H149.816V38H145.496ZM137.672 18.368C136.616 18.368 135.592 18.576 134.6 18.992C133.64 19.376 132.808 19.92 132.104 20.624C131.4 21.328 130.84 22.176 130.424 23.168C130.04 24.128 129.848 25.136 129.848 26.192C129.848 27.248 130.04 28.256 130.424 29.216C130.84 30.176 131.4 31.008 132.104 31.712C132.808 32.416 133.64 32.976 134.6 33.392C135.592 33.776 136.616 33.968 137.672 33.968C138.728 33.968 139.736 33.776 140.696 33.392C141.656 32.976 142.488 32.416 143.192 31.712C143.896 31.008 144.44 30.176 144.824 29.216C145.24 28.256 145.448 27.248 145.448 26.192C145.448 25.136 145.24 24.128 144.824 23.168C144.44 22.176 143.896 21.328 143.192 20.624C142.488 19.92 141.656 19.376 140.696 18.992C139.736 18.576 138.728 18.368 137.672 18.368ZM154.603 38V6.08H158.443V38H154.603Z" fill="url(#paint0_linear_341_53)"/>
<path d="M7.712 52V47.982H3.932V52H2.7V42.69H3.932V46.722H7.712V42.69H8.93V52H7.712ZM21.7529 49.032C21.7529 49.256 21.8322 49.4893 21.9909 49.732C22.1589 49.9747 22.3502 50.18 22.5649 50.348C22.9569 50.656 23.4142 50.81 23.9369 50.81C24.7676 50.81 25.4442 50.4087 25.9669 49.606L27.0309 50.236C26.6669 50.824 26.2189 51.2767 25.6869 51.594C25.1549 51.9113 24.5716 52.07 23.9369 52.07C23.4609 52.07 23.0082 51.9813 22.5789 51.804C22.1496 51.6173 21.7716 51.3607 21.4449 51.034C21.1182 50.7073 20.8616 50.3293 20.6749 49.9C20.4976 49.4707 20.4089 49.018 20.4089 48.542C20.4089 48.066 20.4976 47.6133 20.6749 47.184C20.8616 46.7453 21.1182 46.3627 21.4449 46.036C21.7622 45.7093 22.1356 45.4573 22.5649 45.28C23.0036 45.1027 23.4609 45.014 23.9369 45.014C24.4129 45.014 24.8656 45.1027 25.2949 45.28C25.7336 45.4573 26.1116 45.7093 26.4289 46.036C27.1196 46.7453 27.4649 47.5667 27.4649 48.5C27.4649 48.668 27.4509 48.8453 27.4229 49.032H21.7529ZM23.9369 46.162C23.5542 46.162 23.1949 46.246 22.8589 46.414C22.5229 46.582 22.2522 46.806 22.0469 47.086C21.8509 47.3567 21.7529 47.646 21.7529 47.954H26.1209C26.1209 47.646 26.0182 47.3567 25.8129 47.086C25.6169 46.806 25.3509 46.582 25.0149 46.414C24.6789 46.246 24.3196 46.162 23.9369 46.162ZM44.478 52V50.936C44.1793 51.2813 43.834 51.5567 43.442 51.762C43.05 51.9673 42.6346 52.07 42.196 52.07C41.7106 52.07 41.2533 51.9813 40.824 51.804C40.404 51.6267 40.0306 51.3747 39.704 51.048C39.3773 50.7307 39.1206 50.3573 38.934 49.928C38.7566 49.4893 38.668 49.032 38.668 48.556C38.668 48.08 38.7566 47.6273 38.934 47.198C39.1206 46.7593 39.3773 46.3767 39.704 46.05C40.0306 45.7233 40.404 45.4713 40.824 45.294C41.2533 45.1167 41.7106 45.028 42.196 45.028C42.644 45.028 43.064 45.1213 43.456 45.308C43.8573 45.4947 44.198 45.756 44.478 46.092V45.168H45.738V52H44.478ZM42.196 46.274C41.888 46.274 41.5893 46.3347 41.3 46.456C41.02 46.568 40.7773 46.7267 40.572 46.932C40.3666 47.1373 40.2033 47.3847 40.082 47.674C39.97 47.954 39.914 48.248 39.914 48.556C39.914 48.864 39.97 49.158 40.082 49.438C40.2033 49.718 40.3666 49.9607 40.572 50.166C40.7773 50.3713 41.02 50.5347 41.3 50.656C41.5893 50.768 41.888 50.824 42.196 50.824C42.504 50.824 42.798 50.768 43.078 50.656C43.358 50.5347 43.6006 50.3713 43.806 50.166C44.0113 49.9607 44.17 49.718 44.282 49.438C44.4033 49.158 44.464 48.864 44.464 48.556C44.464 48.248 44.4033 47.954 44.282 47.674C44.17 47.3847 44.0113 47.1373 43.806 46.932C43.6006 46.7267 43.358 46.568 43.078 46.456C42.798 46.3347 42.504 46.274 42.196 46.274ZM57.3541 52V42.69H58.4741V52H57.3541ZM72.1898 46.26V52H70.9998V46.26H69.9498V45H70.9998V42.69H72.1898V45H73.2398V46.26H72.1898ZM89.0518 52V47.702C89.0518 47.2633 88.8978 46.89 88.5898 46.582C88.4498 46.442 88.2818 46.33 88.0858 46.246C87.8991 46.162 87.7078 46.12 87.5118 46.12C87.0918 46.12 86.7278 46.274 86.4198 46.582C86.1118 46.89 85.9578 47.2633 85.9578 47.702V52H84.7258V42.662H85.9578V45.49C86.4058 45.07 86.9238 44.86 87.5118 44.86C87.8851 44.86 88.2398 44.9347 88.5758 45.084C88.9118 45.224 89.2104 45.4247 89.4718 45.686C89.7238 45.9473 89.9198 46.2553 90.0598 46.61C90.2091 46.9553 90.2838 47.3193 90.2838 47.702V52H89.0518ZM105.265 52.07C104.789 52.07 104.336 51.9813 103.907 51.804C103.487 51.6173 103.113 51.3607 102.787 51.034C102.469 50.7167 102.217 50.3433 102.031 49.914C101.853 49.4753 101.765 49.018 101.765 48.542C101.765 48.066 101.853 47.6133 102.031 47.184C102.217 46.7453 102.469 46.3673 102.787 46.05C103.113 45.7233 103.487 45.4713 103.907 45.294C104.336 45.1073 104.789 45.014 105.265 45.014C106.366 45.014 107.299 45.4807 108.065 46.414L106.973 47.044C106.487 46.5307 105.918 46.274 105.265 46.274C104.957 46.274 104.663 46.3347 104.383 46.456C104.112 46.568 103.874 46.7267 103.669 46.932C103.463 47.1373 103.3 47.38 103.179 47.66C103.057 47.94 102.997 48.234 102.997 48.542C102.997 48.85 103.057 49.144 103.179 49.424C103.3 49.704 103.463 49.9467 103.669 50.152C103.874 50.3573 104.112 50.5207 104.383 50.642C104.663 50.754 104.957 50.81 105.265 50.81C105.918 50.81 106.487 50.5533 106.973 50.04L108.065 50.67C107.299 51.6033 106.366 52.07 105.265 52.07ZM124.795 52V50.936C124.496 51.2813 124.151 51.5567 123.759 51.762C123.367 51.9673 122.951 52.07 122.513 52.07C122.027 52.07 121.57 51.9813 121.141 51.804C120.721 51.6267 120.347 51.3747 120.021 51.048C119.694 50.7307 119.437 50.3573 119.251 49.928C119.073 49.4893 118.985 49.032 118.985 48.556C118.985 48.08 119.073 47.6273 119.251 47.198C119.437 46.7593 119.694 46.3767 120.021 46.05C120.347 45.7233 120.721 45.4713 121.141 45.294C121.57 45.1167 122.027 45.028 122.513 45.028C122.961 45.028 123.381 45.1213 123.773 45.308C124.174 45.4947 124.515 45.756 124.795 46.092V45.168H126.055V52H124.795ZM122.513 46.274C122.205 46.274 121.906 46.3347 121.617 46.456C121.337 46.568 121.094 46.7267 120.889 46.932C120.683 47.1373 120.52 47.3847 120.399 47.674C120.287 47.954 120.231 48.248 120.231 48.556C120.231 48.864 120.287 49.158 120.399 49.438C120.52 49.718 120.683 49.9607 120.889 50.166C121.094 50.3713 121.337 50.5347 121.617 50.656C121.906 50.768 122.205 50.824 122.513 50.824C122.821 50.824 123.115 50.768 123.395 50.656C123.675 50.5347 123.917 50.3713 124.123 50.166C124.328 49.9607 124.487 49.718 124.599 49.438C124.72 49.158 124.781 48.864 124.781 48.556C124.781 48.248 124.72 47.954 124.599 47.674C124.487 47.3847 124.328 47.1373 124.123 46.932C123.917 46.7267 123.675 46.568 123.395 46.456C123.115 46.3347 122.821 46.274 122.513 46.274ZM140.793 46.344C140.569 46.2413 140.368 46.19 140.191 46.19C139.818 46.19 139.51 46.3207 139.267 46.582C139.006 46.862 138.875 47.184 138.875 47.548V52H137.671V47.548C137.671 47.044 137.797 46.582 138.049 46.162C138.31 45.742 138.665 45.4153 139.113 45.182C139.449 45.0233 139.808 44.944 140.191 44.944C140.499 44.944 140.793 45 141.073 45.112C141.353 45.224 141.647 45.406 141.955 45.658L140.793 46.344ZM153.388 49.032C153.388 49.256 153.467 49.4893 153.626 49.732C153.794 49.9747 153.985 50.18 154.2 50.348C154.592 50.656 155.049 50.81 155.572 50.81C156.403 50.81 157.079 50.4087 157.602 49.606L158.666 50.236C158.302 50.824 157.854 51.2767 157.322 51.594C156.79 51.9113 156.207 52.07 155.572 52.07C155.096 52.07 154.643 51.9813 154.214 51.804C153.785 51.6173 153.407 51.3607 153.08 51.034C152.753 50.7073 152.497 50.3293 152.31 49.9C152.133 49.4707 152.044 49.018 152.044 48.542C152.044 48.066 152.133 47.6133 152.31 47.184C152.497 46.7453 152.753 46.3627 153.08 46.036C153.397 45.7093 153.771 45.4573 154.2 45.28C154.639 45.1027 155.096 45.014 155.572 45.014C156.048 45.014 156.501 45.1027 156.93 45.28C157.369 45.4573 157.747 45.7093 158.064 46.036C158.755 46.7453 159.1 47.5667 159.1 48.5C159.1 48.668 159.086 48.8453 159.058 49.032H153.388ZM155.572 46.162C155.189 46.162 154.83 46.246 154.494 46.414C154.158 46.582 153.887 46.806 153.682 47.086C153.486 47.3567 153.388 47.646 153.388 47.954H157.756C157.756 47.646 157.653 47.3567 157.448 47.086C157.252 46.806 156.986 46.582 156.65 46.414C156.314 46.246 155.955 46.162 155.572 46.162Z" fill="white"/>
<defs>
<linearGradient id="paint0_linear_341_53" x1="98" y1="38" x2="158.78" y2="-3.26926" gradientUnits="userSpaceOnUse">
<stop stop-color="#00FFF0"/>
<stop offset="1" stop-color="#0497EA"/>
</linearGradient>
</defs>
</svg>
