<svg width="188" height="58" viewBox="0 0 188 58" fill="none" xmlns="http://www.w3.org/2000/svg">
<path d="M55.944 41V15.992L46.44 29.72H43.176L33.72 15.992V41H29.4V9.08H34.152L44.808 24.488L55.464 9.08H60.264V41H55.944ZM69.1999 30.824C69.1999 31.592 69.4719 32.392 70.0159 33.224C70.5919 34.056 71.2479 34.76 71.9839 35.336C73.3279 36.392 74.8959 36.92 76.6879 36.92C79.5359 36.92 81.8559 35.544 83.6479 32.792L87.2959 34.952C86.0479 36.968 84.5119 38.52 82.6879 39.608C80.8639 40.696 78.8639 41.24 76.6879 41.24C75.0559 41.24 73.5039 40.936 72.0319 40.328C70.5599 39.688 69.2639 38.808 68.1439 37.688C67.0239 36.568 66.1439 35.272 65.5039 33.8C64.8959 32.328 64.5919 30.776 64.5919 29.144C64.5919 27.512 64.8959 25.96 65.5039 24.488C66.1439 22.984 67.0239 21.672 68.1439 20.552C69.2319 19.432 70.5119 18.568 71.9839 17.96C73.4879 17.352 75.0559 17.048 76.6879 17.048C78.3199 17.048 79.8719 17.352 81.3439 17.96C82.8479 18.568 84.1439 19.432 85.2319 20.552C87.5999 22.984 88.7839 25.8 88.7839 29C88.7839 29.576 88.7359 30.184 88.6399 30.824H69.1999ZM76.6879 20.984C75.3759 20.984 74.1439 21.272 72.9919 21.848C71.8399 22.424 70.9119 23.192 70.2079 24.152C69.5359 25.08 69.1999 26.072 69.1999 27.128H84.1759C84.1759 26.072 83.8239 25.08 83.1199 24.152C82.4479 23.192 81.5359 22.424 80.3839 21.848C79.2319 21.272 77.9999 20.984 76.6879 20.984ZM112.266 41V37.304C111.242 38.52 110.026 39.48 108.618 40.184C107.242 40.888 105.802 41.24 104.298 41.24C102.602 41.24 101.018 40.936 99.5464 40.328C98.0744 39.688 96.7944 38.792 95.7064 37.64C94.5864 36.488 93.7064 35.176 93.0664 33.704C92.4584 32.2 92.1544 30.616 92.1544 28.952C92.1544 27.288 92.4584 25.72 93.0664 24.248C93.7064 22.744 94.5864 21.416 95.7064 20.264C96.7944 19.112 98.0744 18.232 99.5464 17.624C101.018 16.984 102.602 16.664 104.298 16.664C105.962 16.664 107.466 17 108.81 17.672C110.186 18.344 111.338 19.272 112.266 20.456V9.128H116.49V41H112.266ZM104.298 21.032C103.242 21.032 102.234 21.24 101.274 21.656C100.314 22.04 99.4824 22.6 98.7784 23.336C98.0744 24.072 97.5144 24.936 97.0984 25.928C96.6824 26.888 96.4744 27.896 96.4744 28.952C96.4744 31.096 97.2424 32.968 98.7784 34.568C99.4824 35.304 100.314 35.88 101.274 36.296C102.234 36.712 103.242 36.92 104.298 36.92C105.354 36.92 106.362 36.712 107.322 36.296C108.314 35.88 109.162 35.304 109.866 34.568C111.402 32.968 112.17 31.096 112.17 28.952C112.17 27.896 111.962 26.888 111.546 25.928C111.13 24.936 110.57 24.072 109.866 23.336C109.162 22.6 108.314 22.04 107.322 21.656C106.362 21.24 105.354 21.032 104.298 21.032ZM123.483 13.544C122.875 13.544 122.347 13.336 121.899 12.92C121.483 12.472 121.275 11.944 121.275 11.336C121.275 10.728 121.483 10.216 121.899 9.8C122.347 9.352 122.875 9.128 123.483 9.128C124.091 9.128 124.603 9.352 125.019 9.8C125.467 10.216 125.691 10.728 125.691 11.336C125.691 11.944 125.467 12.472 125.019 12.92C124.603 13.336 124.091 13.544 123.483 13.544ZM121.515 41V17H125.547V41H121.515Z" fill="#363636"/>
<path d="M140.576 41.24C138.944 41.24 137.392 40.936 135.92 40.328C134.48 39.688 133.2 38.808 132.08 37.688C130.992 36.6 130.128 35.32 129.488 33.848C128.88 32.344 128.576 30.776 128.576 29.144C128.576 27.512 128.88 25.96 129.488 24.488C130.128 22.984 130.992 21.688 132.08 20.6C133.2 19.48 134.48 18.616 135.92 18.008C137.392 17.368 138.944 17.048 140.576 17.048C144.352 17.048 147.552 18.648 150.176 21.848L146.432 24.008C144.768 22.248 142.816 21.368 140.576 21.368C139.52 21.368 138.512 21.576 137.552 21.992C136.624 22.376 135.808 22.92 135.104 23.624C134.4 24.328 133.84 25.16 133.424 26.12C133.008 27.08 132.8 28.088 132.8 29.144C132.8 30.2 133.008 31.208 133.424 32.168C133.84 33.128 134.4 33.96 135.104 34.664C135.808 35.368 136.624 35.928 137.552 36.344C138.512 36.728 139.52 36.92 140.576 36.92C142.816 36.92 144.768 36.04 146.432 34.28L150.176 36.44C147.552 39.64 144.352 41.24 140.576 41.24ZM172.496 41V37.352C171.472 38.536 170.288 39.48 168.944 40.184C167.6 40.888 166.176 41.24 164.672 41.24C163.008 41.24 161.44 40.936 159.968 40.328C158.528 39.72 157.248 38.856 156.128 37.736C155.008 36.648 154.128 35.368 153.488 33.896C152.88 32.392 152.576 30.824 152.576 29.192C152.576 27.56 152.88 26.008 153.488 24.536C154.128 23.032 155.008 21.72 156.128 20.6C157.248 19.48 158.528 18.616 159.968 18.008C161.44 17.4 163.008 17.096 164.672 17.096C166.208 17.096 167.648 17.416 168.992 18.056C170.368 18.696 171.536 19.592 172.496 20.744V17.576H176.816V41H172.496ZM164.672 21.368C163.616 21.368 162.592 21.576 161.6 21.992C160.64 22.376 159.808 22.92 159.104 23.624C158.4 24.328 157.84 25.176 157.424 26.168C157.04 27.128 156.848 28.136 156.848 29.192C156.848 30.248 157.04 31.256 157.424 32.216C157.84 33.176 158.4 34.008 159.104 34.712C159.808 35.416 160.64 35.976 161.6 36.392C162.592 36.776 163.616 36.968 164.672 36.968C165.728 36.968 166.736 36.776 167.696 36.392C168.656 35.976 169.488 35.416 170.192 34.712C170.896 34.008 171.44 33.176 171.824 32.216C172.24 31.256 172.448 30.248 172.448 29.192C172.448 28.136 172.24 27.128 171.824 26.168C171.44 25.176 170.896 24.328 170.192 23.624C169.488 22.92 168.656 22.376 167.696 21.992C166.736 21.576 165.728 21.368 164.672 21.368ZM181.603 41V9.08H185.443V41H181.603Z" fill="url(#paint0_linear_279_11)"/>
<path d="M34.712 55V50.982H30.932V55H29.7V45.69H30.932V49.722H34.712V45.69H35.93V55H34.712ZM48.7529 52.032C48.7529 52.256 48.8322 52.4893 48.9909 52.732C49.1589 52.9747 49.3502 53.18 49.5649 53.348C49.9569 53.656 50.4142 53.81 50.9369 53.81C51.7676 53.81 52.4442 53.4087 52.9669 52.606L54.0309 53.236C53.6669 53.824 53.2189 54.2767 52.6869 54.594C52.1549 54.9113 51.5716 55.07 50.9369 55.07C50.4609 55.07 50.0082 54.9813 49.5789 54.804C49.1496 54.6173 48.7716 54.3607 48.4449 54.034C48.1182 53.7073 47.8616 53.3293 47.6749 52.9C47.4976 52.4707 47.4089 52.018 47.4089 51.542C47.4089 51.066 47.4976 50.6133 47.6749 50.184C47.8616 49.7453 48.1182 49.3627 48.4449 49.036C48.7622 48.7093 49.1356 48.4573 49.5649 48.28C50.0036 48.1027 50.4609 48.014 50.9369 48.014C51.4129 48.014 51.8656 48.1027 52.2949 48.28C52.7336 48.4573 53.1116 48.7093 53.4289 49.036C54.1196 49.7453 54.4649 50.5667 54.4649 51.5C54.4649 51.668 54.4509 51.8453 54.4229 52.032H48.7529ZM50.9369 49.162C50.5542 49.162 50.1949 49.246 49.8589 49.414C49.5229 49.582 49.2522 49.806 49.0469 50.086C48.8509 50.3567 48.7529 50.646 48.7529 50.954H53.1209C53.1209 50.646 53.0182 50.3567 52.8129 50.086C52.6169 49.806 52.3509 49.582 52.0149 49.414C51.6789 49.246 51.3196 49.162 50.9369 49.162ZM71.478 55V53.936C71.1793 54.2813 70.834 54.5567 70.442 54.762C70.05 54.9673 69.6346 55.07 69.196 55.07C68.7106 55.07 68.2533 54.9813 67.824 54.804C67.404 54.6267 67.0306 54.3747 66.704 54.048C66.3773 53.7307 66.1206 53.3573 65.934 52.928C65.7566 52.4893 65.668 52.032 65.668 51.556C65.668 51.08 65.7566 50.6273 65.934 50.198C66.1206 49.7593 66.3773 49.3767 66.704 49.05C67.0306 48.7233 67.404 48.4713 67.824 48.294C68.2533 48.1167 68.7106 48.028 69.196 48.028C69.644 48.028 70.064 48.1213 70.456 48.308C70.8573 48.4947 71.198 48.756 71.478 49.092V48.168H72.738V55H71.478ZM69.196 49.274C68.888 49.274 68.5893 49.3347 68.3 49.456C68.02 49.568 67.7773 49.7267 67.572 49.932C67.3666 50.1373 67.2033 50.3847 67.082 50.674C66.97 50.954 66.914 51.248 66.914 51.556C66.914 51.864 66.97 52.158 67.082 52.438C67.2033 52.718 67.3666 52.9607 67.572 53.166C67.7773 53.3713 68.02 53.5347 68.3 53.656C68.5893 53.768 68.888 53.824 69.196 53.824C69.504 53.824 69.798 53.768 70.078 53.656C70.358 53.5347 70.6006 53.3713 70.806 53.166C71.0113 52.9607 71.17 52.718 71.282 52.438C71.4033 52.158 71.464 51.864 71.464 51.556C71.464 51.248 71.4033 50.954 71.282 50.674C71.17 50.3847 71.0113 50.1373 70.806 49.932C70.6006 49.7267 70.358 49.568 70.078 49.456C69.798 49.3347 69.504 49.274 69.196 49.274ZM84.3541 55V45.69H85.4741V55H84.3541ZM99.1898 49.26V55H97.9998V49.26H96.9498V48H97.9998V45.69H99.1898V48H100.24V49.26H99.1898ZM116.052 55V50.702C116.052 50.2633 115.898 49.89 115.59 49.582C115.45 49.442 115.282 49.33 115.086 49.246C114.899 49.162 114.708 49.12 114.512 49.12C114.092 49.12 113.728 49.274 113.42 49.582C113.112 49.89 112.958 50.2633 112.958 50.702V55H111.726V45.662H112.958V48.49C113.406 48.07 113.924 47.86 114.512 47.86C114.885 47.86 115.24 47.9347 115.576 48.084C115.912 48.224 116.21 48.4247 116.472 48.686C116.724 48.9473 116.92 49.2553 117.06 49.61C117.209 49.9553 117.284 50.3193 117.284 50.702V55H116.052ZM132.265 55.07C131.789 55.07 131.336 54.9813 130.907 54.804C130.487 54.6173 130.113 54.3607 129.787 54.034C129.469 53.7167 129.217 53.3433 129.031 52.914C128.853 52.4753 128.765 52.018 128.765 51.542C128.765 51.066 128.853 50.6133 129.031 50.184C129.217 49.7453 129.469 49.3673 129.787 49.05C130.113 48.7233 130.487 48.4713 130.907 48.294C131.336 48.1073 131.789 48.014 132.265 48.014C133.366 48.014 134.299 48.4807 135.065 49.414L133.973 50.044C133.487 49.5307 132.918 49.274 132.265 49.274C131.957 49.274 131.663 49.3347 131.383 49.456C131.112 49.568 130.874 49.7267 130.669 49.932C130.463 50.1373 130.3 50.38 130.179 50.66C130.057 50.94 129.997 51.234 129.997 51.542C129.997 51.85 130.057 52.144 130.179 52.424C130.3 52.704 130.463 52.9467 130.669 53.152C130.874 53.3573 131.112 53.5207 131.383 53.642C131.663 53.754 131.957 53.81 132.265 53.81C132.918 53.81 133.487 53.5533 133.973 53.04L135.065 53.67C134.299 54.6033 133.366 55.07 132.265 55.07ZM151.795 55V53.936C151.496 54.2813 151.151 54.5567 150.759 54.762C150.367 54.9673 149.951 55.07 149.513 55.07C149.027 55.07 148.57 54.9813 148.141 54.804C147.721 54.6267 147.347 54.3747 147.021 54.048C146.694 53.7307 146.437 53.3573 146.251 52.928C146.073 52.4893 145.985 52.032 145.985 51.556C145.985 51.08 146.073 50.6273 146.251 50.198C146.437 49.7593 146.694 49.3767 147.021 49.05C147.347 48.7233 147.721 48.4713 148.141 48.294C148.57 48.1167 149.027 48.028 149.513 48.028C149.961 48.028 150.381 48.1213 150.773 48.308C151.174 48.4947 151.515 48.756 151.795 49.092V48.168H153.055V55H151.795ZM149.513 49.274C149.205 49.274 148.906 49.3347 148.617 49.456C148.337 49.568 148.094 49.7267 147.889 49.932C147.683 50.1373 147.52 50.3847 147.399 50.674C147.287 50.954 147.231 51.248 147.231 51.556C147.231 51.864 147.287 52.158 147.399 52.438C147.52 52.718 147.683 52.9607 147.889 53.166C148.094 53.3713 148.337 53.5347 148.617 53.656C148.906 53.768 149.205 53.824 149.513 53.824C149.821 53.824 150.115 53.768 150.395 53.656C150.675 53.5347 150.917 53.3713 151.123 53.166C151.328 52.9607 151.487 52.718 151.599 52.438C151.72 52.158 151.781 51.864 151.781 51.556C151.781 51.248 151.72 50.954 151.599 50.674C151.487 50.3847 151.328 50.1373 151.123 49.932C150.917 49.7267 150.675 49.568 150.395 49.456C150.115 49.3347 149.821 49.274 149.513 49.274ZM167.793 49.344C167.569 49.2413 167.368 49.19 167.191 49.19C166.818 49.19 166.51 49.3207 166.267 49.582C166.006 49.862 165.875 50.184 165.875 50.548V55H164.671V50.548C164.671 50.044 164.797 49.582 165.049 49.162C165.31 48.742 165.665 48.4153 166.113 48.182C166.449 48.0233 166.808 47.944 167.191 47.944C167.499 47.944 167.793 48 168.073 48.112C168.353 48.224 168.647 48.406 168.955 48.658L167.793 49.344ZM180.388 52.032C180.388 52.256 180.467 52.4893 180.626 52.732C180.794 52.9747 180.985 53.18 181.2 53.348C181.592 53.656 182.049 53.81 182.572 53.81C183.403 53.81 184.079 53.4087 184.602 52.606L185.666 53.236C185.302 53.824 184.854 54.2767 184.322 54.594C183.79 54.9113 183.207 55.07 182.572 55.07C182.096 55.07 181.643 54.9813 181.214 54.804C180.785 54.6173 180.407 54.3607 180.08 54.034C179.753 53.7073 179.497 53.3293 179.31 52.9C179.133 52.4707 179.044 52.018 179.044 51.542C179.044 51.066 179.133 50.6133 179.31 50.184C179.497 49.7453 179.753 49.3627 180.08 49.036C180.397 48.7093 180.771 48.4573 181.2 48.28C181.639 48.1027 182.096 48.014 182.572 48.014C183.048 48.014 183.501 48.1027 183.93 48.28C184.369 48.4573 184.747 48.7093 185.064 49.036C185.755 49.7453 186.1 50.5667 186.1 51.5C186.1 51.668 186.086 51.8453 186.058 52.032H180.388ZM182.572 49.162C182.189 49.162 181.83 49.246 181.494 49.414C181.158 49.582 180.887 49.806 180.682 50.086C180.486 50.3567 180.388 50.646 180.388 50.954H184.756C184.756 50.646 184.653 50.3567 184.448 50.086C184.252 49.806 183.986 49.582 183.65 49.414C183.314 49.246 182.955 49.162 182.572 49.162Z" fill="#363636"/>
<path d="M8.73065 9.07451C5.5369 6.16704 2.0754 1.20766 1.65577 0C-1.78826 7.38606 0.531199 24.1561 5.02575 29.3928C9.52031 34.6295 12.76 32.5272 16.5033 32.7773C19.1159 32.9518 20.9 39.0011 21.142 41H24C20.6881 31.7542 16.6711 30.0667 9.30149 24.0208C6.2575 21.5236 4.04309 15.2101 3.37535 12.3709C4.08659 14.9476 8.02877 20.7085 11.3203 23.1803C16.8496 27.3327 16.7213 26.0455 22.1678 33.2556C29.0634 15.8107 12.7228 12.7089 8.73065 9.07451Z" fill="url(#paint1_linear_279_11)"/>
<defs>
<linearGradient id="paint0_linear_279_11" x1="125" y1="41" x2="185.78" y2="-0.269257" gradientUnits="userSpaceOnUse">
<stop stop-color="#00FFF0"/>
<stop offset="1" stop-color="#0497EA"/>
</linearGradient>
<linearGradient id="paint1_linear_279_11" x1="24" y1="28.5" x2="4.62098" y2="-9.5616" gradientUnits="userSpaceOnUse">
<stop stop-color="#00FFF0"/>
<stop offset="1" stop-color="#04A5EA"/>
</linearGradient>
</defs>
</svg>
